<mxfile host="app.diagrams.net" modified="2021-04-30T02:46:48.598Z" agent="5.0 (Macintosh; Intel Mac OS X 10_14_2) AppleWebKit/537.36 (KHTML, like Gecko) Chrome/90.0.4430.85 Safari/537.36" etag="eXMTxXsCPOnrYN6RpxCf" version="14.6.0" type="github">
  <diagram name="Page-1" id="74e2e168-ea6b-b213-b513-2b3c1d86103e">
    <mxGraphModel dx="1426" dy="770" grid="1" gridSize="10" guides="1" tooltips="1" connect="1" arrows="1" fold="1" page="1" pageScale="1" pageWidth="1100" pageHeight="850" background="#ffffff" math="0" shadow="0">
      <root>
        <mxCell id="0" />
        <mxCell id="1" parent="0" />
        <mxCell id="77e6c97f196da883-1" value="Pool" style="swimlane;html=1;childLayout=stackLayout;startSize=20;rounded=0;shadow=0;labelBackgroundColor=none;strokeWidth=1;fontFamily=Verdana;fontSize=8;align=center;" parent="1" vertex="1">
          <mxGeometry x="60" y="40" width="1000" height="750" as="geometry" />
        </mxCell>
        <mxCell id="77e6c97f196da883-2" value="Lane 1" style="swimlane;html=1;startSize=20;" parent="77e6c97f196da883-1" vertex="1">
          <mxGeometry y="20" width="160" height="730" as="geometry" />
        </mxCell>
        <mxCell id="hgS4U70z96u7t3l4mlvC-1" value="request" style="rounded=0;whiteSpace=wrap;html=1;" vertex="1" parent="77e6c97f196da883-2">
          <mxGeometry x="20" y="60" width="120" height="60" as="geometry" />
        </mxCell>
        <mxCell id="hgS4U70z96u7t3l4mlvC-16" value="ksvc" style="rounded=0;whiteSpace=wrap;html=1;" vertex="1" parent="77e6c97f196da883-2">
          <mxGeometry x="20" y="400" width="120" height="60" as="geometry" />
        </mxCell>
        <mxCell id="77e6c97f196da883-3" value="Lane 2" style="swimlane;html=1;startSize=20;" parent="77e6c97f196da883-1" vertex="1">
          <mxGeometry x="160" y="20" width="160" height="730" as="geometry" />
        </mxCell>
        <mxCell id="hgS4U70z96u7t3l4mlvC-2" value="Gateway" style="rounded=0;whiteSpace=wrap;html=1;" vertex="1" parent="77e6c97f196da883-3">
          <mxGeometry x="30" y="60" width="120" height="60" as="geometry" />
        </mxCell>
        <mxCell id="hgS4U70z96u7t3l4mlvC-17" value="route" style="rounded=0;whiteSpace=wrap;html=1;" vertex="1" parent="77e6c97f196da883-3">
          <mxGeometry x="20" y="400" width="120" height="60" as="geometry" />
        </mxCell>
        <mxCell id="77e6c97f196da883-5" value="Lane 4" style="swimlane;html=1;startSize=20;" parent="77e6c97f196da883-1" vertex="1">
          <mxGeometry x="320" y="20" width="200" height="730" as="geometry" />
        </mxCell>
        <mxCell id="hgS4U70z96u7t3l4mlvC-12" value="vs" style="rounded=0;whiteSpace=wrap;html=1;" vertex="1" parent="77e6c97f196da883-5">
          <mxGeometry x="30" y="60" width="120" height="60" as="geometry" />
        </mxCell>
        <mxCell id="hgS4U70z96u7t3l4mlvC-15" value="dr" style="triangle;whiteSpace=wrap;html=1;direction=north;" vertex="1" parent="77e6c97f196da883-5">
          <mxGeometry x="140" y="140" width="80" height="60" as="geometry" />
        </mxCell>
        <mxCell id="hgS4U70z96u7t3l4mlvC-18" value="ingress" style="rounded=0;whiteSpace=wrap;html=1;" vertex="1" parent="77e6c97f196da883-5">
          <mxGeometry x="40" y="400" width="120" height="60" as="geometry" />
        </mxCell>
        <mxCell id="hgS4U70z96u7t3l4mlvC-26" value="sks" style="rounded=0;whiteSpace=wrap;html=1;" vertex="1" parent="77e6c97f196da883-5">
          <mxGeometry x="40" y="660" width="120" height="60" as="geometry" />
        </mxCell>
        <mxCell id="77e6c97f196da883-6" value="Lane 5" style="swimlane;html=1;startSize=20;" parent="77e6c97f196da883-1" vertex="1">
          <mxGeometry x="520" y="20" width="160" height="730" as="geometry" />
        </mxCell>
        <mxCell id="hgS4U70z96u7t3l4mlvC-13" value="svc" style="rounded=0;whiteSpace=wrap;html=1;" vertex="1" parent="77e6c97f196da883-6">
          <mxGeometry x="20" y="60" width="120" height="60" as="geometry" />
        </mxCell>
        <mxCell id="hgS4U70z96u7t3l4mlvC-19" value="vs" style="rounded=0;whiteSpace=wrap;html=1;" vertex="1" parent="77e6c97f196da883-6">
          <mxGeometry x="30" y="400" width="120" height="60" as="geometry" />
        </mxCell>
        <mxCell id="hgS4U70z96u7t3l4mlvC-23" value="public svc" style="rounded=0;whiteSpace=wrap;html=1;" vertex="1" parent="77e6c97f196da883-6">
          <mxGeometry x="20" y="570" width="120" height="60" as="geometry" />
        </mxCell>
        <mxCell id="hgS4U70z96u7t3l4mlvC-24" value="private svc" style="rounded=0;whiteSpace=wrap;html=1;" vertex="1" parent="77e6c97f196da883-6">
          <mxGeometry x="21" y="650" width="120" height="60" as="geometry" />
        </mxCell>
        <mxCell id="hgS4U70z96u7t3l4mlvC-25" value="ksvc" style="rounded=0;whiteSpace=wrap;html=1;" vertex="1" parent="77e6c97f196da883-6">
          <mxGeometry x="20" y="490" width="120" height="60" as="geometry" />
        </mxCell>
        <mxCell id="77e6c97f196da883-7" value="Lane 6" style="swimlane;html=1;startSize=20;" parent="77e6c97f196da883-1" vertex="1">
          <mxGeometry x="680" y="20" width="160" height="730" as="geometry" />
        </mxCell>
        <mxCell id="hgS4U70z96u7t3l4mlvC-14" value="pod" style="rounded=0;whiteSpace=wrap;html=1;" vertex="1" parent="77e6c97f196da883-7">
          <mxGeometry x="20" y="60" width="120" height="60" as="geometry" />
        </mxCell>
        <mxCell id="hgS4U70z96u7t3l4mlvC-21" value="activitor pod" style="rounded=0;whiteSpace=wrap;html=1;" vertex="1" parent="77e6c97f196da883-7">
          <mxGeometry x="20" y="570" width="120" height="60" as="geometry" />
        </mxCell>
        <mxCell id="hgS4U70z96u7t3l4mlvC-22" value="item pod" style="rounded=0;whiteSpace=wrap;html=1;" vertex="1" parent="77e6c97f196da883-7">
          <mxGeometry x="20" y="650" width="120" height="60" as="geometry" />
        </mxCell>
      </root>
    </mxGraphModel>
  </diagram>
</mxfile>
